<svg width="16" height="16" viewBox="0 0 16 16" fill="none" xmlns="http://www.w3.org/2000/svg">
    <path fill-rule="evenodd" clip-rule="evenodd" d="M15.2071 2.20692C15.3892 2.01832 15.49 1.76571 15.4878 1.50352C15.4855 1.24132 15.3803 0.990509 15.1949 0.805101C15.0095 0.619692 14.7587 0.514523 14.4965 0.512245C14.2343 0.509966 13.9817 0.610761 13.7931 0.792919L8.00008 6.58592L2.20708 0.792919C2.01848 0.610761 1.76588 0.509966 1.50368 0.512245C1.24148 0.514523 0.990671 0.619692 0.805263 0.805101C0.619855 0.990509 0.514685 1.24132 0.512407 1.50352C0.510128 1.76571 0.610923 2.01832 0.793081 2.20692L6.58608 7.99992L0.793081 13.7929C0.697571 13.8852 0.621389 13.9955 0.56898 14.1175C0.516571 14.2395 0.488985 14.3707 0.487831 14.5035C0.486677 14.6363 0.511978 14.768 0.562259 14.8909C0.61254 15.0138 0.686793 15.1254 0.780686 15.2193C0.874579 15.3132 0.986231 15.3875 1.10913 15.4377C1.23202 15.488 1.3637 15.5133 1.49648 15.5122C1.62926 15.511 1.76048 15.4834 1.88249 15.431C2.00449 15.3786 2.11483 15.3024 2.20708 15.2069L8.00008 9.41392L13.7931 15.2069C13.9817 15.3891 14.2343 15.4899 14.4965 15.4876C14.7587 15.4853 15.0095 15.3801 15.1949 15.1947C15.3803 15.0093 15.4855 14.7585 15.4878 14.4963C15.49 14.2341 15.3892 13.9815 15.2071 13.7929L9.41408 7.99992L15.2071 2.20692Z" fill="black"/>
</svg>
